[img]http://i.imgur.com/Amz8O.jpg[/img]

[code]

Seven.Psychopaths.2012.720p.BDRip.XViD.AC3-26k
 
http://www.imdb.com/title/tt1931533/

Plot:

A struggling screenwriter inadvertently becomes entangled in the Los Angeles criminal underworld after 
his oddball friends kidnap a gangster's beloved Shih Tzu.


Sources - VIDEO: Seven.Psychopaths.2012.1080p.BluRay.AVC.DTS-HD.MA.5.1 ..... thanks .... :P
          AUDIO: Seven.Psychopaths.2012.1080p.BluRay.AVC.DTS-HD.MA.5.1 ..... thanks .... :P
          SUBS : ENG.SRT IN TORRENT FILES.

Format                                   : AVI
Format/Info                              : Audio Video Interleave
Format profile                           : OpenDML
File size                                : 3.20 GiB
Duration                                 : 1h 50mn
Overall bit rate                         : 4 149 Kbps
Writing library                          : VirtualDub build 32839/release

Video
ID                                       : 0
Format                                   : MPEG-4 Visual
Format profile                           : Advanced Simple@L5
Format settings, BVOP                    : 2
Format settings, QPel                    : No
Format settings, GMC                     : No warppoints
Format settings, Matrix                  : Default (H.263)
Codec ID                                 : XVID
Codec ID/Hint                            : XviD
Duration                                 : 1h 50mn
Bit rate                                 : 3 499 Kbps
Width                                    : 1 280 pixels
Height                                   : 528 pixels
Display aspect ratio                     : 2.40:1
Frame rate                               : 23.976 fps
Color space                              : YUV
Chroma subsampling                       : 4:2:0
Bit depth                                : 8 bits
Scan type                                : Progressive
Compression mode                         : Lossy
Bits/(Pixel*Frame)                       : 0.216
Stream size                              : 2.70 GiB (84%)
Writing library                          : XviD 1.2.1 (UTC 2008-12-04)

Audio
ID                                       : 1
Format                                   : AC-3
Format/Info                              : Audio Coding 3
Mode extension                           : CM (complete main)
Format settings, Endianness              : Big
Codec ID                                 : 2000
Duration                                 : 1h 50mn
Bit rate mode                            : Constant
Bit rate                                 : 640 Kbps
Channel(s)                               : 6 channels
Channel positions                        : Front: L C R, Side: L R, LFE
Sampling rate                            : 48.0 KHz
Bit depth                                : 16 bits
Compression mode                         : Lossy
Stream size                              : 505 MiB (15%)
Alignment                                : Split accross interleaves
Interleave, duration                     : 42 ms (1.00 video frame)
Interleave, preload duration             : 500 ms

Notes -
Took the BD and made a script to make magic happen.. this is the outcome.. enjoy :P
[/code]

Screens:

[img]http://i.imgur.com/778DF.jpg[/img]
[img]http://i.imgur.com/s7LVO.png[/img]
[img]http://i.imgur.com/X3R1R.jpg[/img]
[img]http://i.imgur.com/Vizhg.jpg[/img]
[img]http://i.imgur.com/pTyG2.jpg[/img]
[img]http://imageshack.us/a/img703/7651/62863012.png[/img]
[img]http://imageshack.us/a/img801/7982/21454984.png[/img]
[img]http://imageshack.us/a/img29/9195/68524641.png[/img]
[img]http://imageshack.us/a/img22/7316/88729427.png[/img]
[img]http://imageshack.us/a/img14/4103/74233702.png[/img]

Greetz:
XtremeEncode|CM8|RX|VISION|HDSCENE|xTriLL|ADTRG|CRYS|REMIXHD|HS|Tommiecook
BIDA|RX|REFILL|INSPiRAL|AXED|HOPE|Anonymous|GooN|NOIR|Blackjesus|Gabroo Punjab Deh
|UNiQUE|RESiSTANCE|TRiNiTY|LEGION

To all the people who have helped me, you know who you are

Anything to offer email us @: 26k@hushmail.me 